<svg width="125" height="24" viewBox="0 0 125 24" fill="none" xmlns="http://www.w3.org/2000/svg">
<path d="M23.65 19.3885H16.475V23.9135H8.05V19.3885H1.225V16.6635L2.45 15.4385V15.2135H1.35V13.2635L3.225 11.5635H1.25V0.888524H23.8V11.5635H12.875L9.2 14.9135H10.25L13.2 12.2135H20.65V13.2885L17.8 15.9635H18.9L21.5 13.4385H23.65V19.3885ZM9.725 4.53852H7.725V5.33853H9.725V4.53852ZM17.025 5.33853V4.53852H15.025V5.33853H17.025ZM7.725 7.43852V8.23852H9.725V7.43852H7.725ZM15.025 8.23852H17.025V7.43852H15.025V8.23852ZM0.9 21.1635L2.35 19.9135H7.475V23.6385H0.9V21.1635ZM22.45 19.9135L23.9 21.1635V23.6385H17.075V19.9135H22.45ZM49.125 7.76353V10.6385H34.575V7.76353H38.475V7.21352H34.675V4.76353H38.475V4.21352H34.575V1.28853H38.475V0.563524H44.675V1.28853H49.1V4.21352H44.675V4.76353H48.925V7.21352H44.675V7.76353H49.125ZM26.125 5.76352V0.913524H34.1V4.93852L33.025 5.63852V6.63852H34.025V12.1135H33.025V12.9135L34 14.0635V19.8635H33.025V23.8385H27.475V20.4885L26.825 21.6885H25.85V14.4635L27.325 12.1135H26.05V6.63852H27.475V5.76352H26.125ZM48.15 21.2635L49.325 22.6385V23.8385H43.325L42.3 22.0635H41.425L40.4 23.8385H34.25V22.6385L35.475 21.2635H34.625V11.1885H49V21.2635H48.15ZM43.6 14.1635H39.8V14.7385H43.6V14.1635ZM43.6 16.9385V16.3635H39.8V16.9385H43.6ZM39.8 18.5885V19.1635H43.6V18.5885H39.8ZM73.85 1.61352V15.0635H58.85V3.28852L61.45 0.663524H66.625V1.61352H73.85ZM51.125 4.68852L53.8 0.963525H58.35V4.18852L56.525 6.66352V6.83853H58.325V11.0885L56.8 12.9635V13.1135H58.275V17.8635H51.025V12.2635L52.35 10.2635V10.1385H51.125V4.68852ZM69.425 11.8885V5.73852H66.875V6.18852H68.975V9.88852L67.625 11.4635H63.6V9.56353H64.15L63.775 8.91353V8.51352H65.725L66.15 9.21352L66.575 8.73852V8.13852H63.6V6.53852L64.325 5.73852H63.175V11.8885H69.425ZM67.35 15.5135V19.3635H70.05V23.8885H63.075V15.5135H67.35ZM67.85 18.8635V15.5385H69.25L70.025 16.5635V18.8635H67.85ZM58.8 23.5385V15.5635H62.6V23.5385H58.8ZM70.525 15.5635H74.125V23.5385H70.525V15.5635ZM50.875 19.5135L51.55 18.4635H53.5V23.8135H50.875V19.5135ZM53.95 23.8135V18.4635H56.05V23.8135H53.95ZM56.525 23.8135V18.4635H58.3V23.8135H56.525ZM97.4 10.5635H91.35V11.2385H98.6V15.0635H91.35V19.5385H99.025V23.8135H76.025V19.5385H83.575V15.0635H76.425V11.2385H83.575V10.5635H77.625V9.26353H75.9V3.73852L83.675 0.413524H90.975L99.15 3.86352V9.26353H97.4V10.5635ZM86.05 5.68853L83.575 6.66352H91.275L88.725 5.68853H86.05ZM82.975 15.6885V18.9135H78L76.8 17.8135V15.6885H82.975ZM96.95 18.9135H91.925V15.6885H98.15V17.8135L96.95 18.9135ZM109.475 0.438524V1.48852H112.925V7.86353H112.375V12.4135L111.45 13.0635L112.875 14.2635V19.6385H112.25V23.8135H101.625V19.6385H100.85V14.2635L102.4 13.2635L101.575 12.5635V10.7385H105.875L106.7 11.3385L108.025 10.4135V10.1885H101.575V7.91352H100.875V1.48852H104.1V0.438524H109.475ZM123.175 20.6885L124.05 22.2885V23.8385H119.375L118.775 21.4885H118.475L117.8 23.8385H113.125V22.2885L114.2 20.6885H113.45V6.58853H115.85L116.1 5.86352H113.5V0.888524H123.975V5.86352H121.175L120.95 6.58853H123.9V20.6885H123.175ZM107.85 7.18853H109.125V5.76352H104.475V6.38852H107.85V7.18853ZM119.725 11.1885V10.4885H117.4V11.1885H119.725ZM119.725 14.2635V13.5885H117.4V14.2635H119.725ZM106.9 15.1385L105.575 16.0385H108.15L106.9 15.1385ZM117.4 16.5885V17.2885H119.725V16.5885H117.4ZM107.925 20.4885V19.4135H105.875V20.4885H107.925Z" fill="#4527A0"/>
</svg>
