<svg width="342" height="119" viewBox="0 0 342 119" fill="none" xmlns="http://www.w3.org/2000/svg">
<path d="M32.948 24.776L30.602 28.433H23.15V12.839L25.841 9.872V0.970999H40.952V10.079L43.505 12.701V28.433H36.329L33.983 24.776H32.948ZM62.825 10.148L65.378 12.77V28.433H57.995L55.856 24.776H54.821L52.475 28.433H45.023V12.839L47.645 9.872V0.970999H62.825V10.148ZM21.632 13.322L3.899 25.535H0.863V6.836L9.764 1.178H21.632V13.322ZM0.863 29.882L17.423 18.359H21.701V64.796H3.554V47.27H0.863V29.882ZM54.338 46.166V48.374H65.309V64.589H39.227L35.156 60.863L32.189 64.727H23.288V29.951H36.881V48.374H38.468V29.951H54.338V32.504H64.688V46.166H54.338ZM161.15 0.418997V6.284H170.051V64.175H139.622V8.492L145.625 0.418997H161.15ZM191.993 3.731H203.24V64.451H174.95V55.274L185.162 48.374V22.223H172.19V7.319L177.227 0.418997H191.993V3.731ZM156.941 22.775H153.284V30.227H156.941V22.775ZM183.092 48.167H176.054L172.466 43.475V24.5H183.092V48.167ZM153.284 50.306H156.941V42.578H153.284V50.306ZM267.686 48.443L273.068 53.687V64.451H260.372L256.301 60.173L252.299 64.589H236.015V0.970999H272.033V37.955H251.126V43.82L255.197 39.611H271.412V44.372L267.686 48.443ZM208.622 64.175V1.385H234.083V64.175H208.622ZM257.681 14.909H250.436V17.186H257.681V14.909ZM222.698 16.151H220.007V21.464H222.698V16.151ZM250.436 26.087H257.681V23.81H250.436V26.087ZM220.007 35.54H222.698V30.572H220.007V35.54ZM220.007 49.961H222.698V44.648H220.007V49.961ZM341.033 5.18V54.584H321.989V64.658H296.735V54.584H278.036V5.18H296.735V0.418997H321.989V5.18H341.033ZM295.355 21.878V38.645H299.495V21.878H295.355ZM323.369 38.645V21.878H319.229V38.645H323.369ZM43.436 97.152H20.896L19.792 98.21H42.746V118.634H2.588V111.55H0.61V100.096L3.876 97.152H0.656V91.402H7.878V90.344H1.576V84.64H7.878V83.628H1.576V76.222H42.884V80.868L39.986 83.628H22.46V84.64H42.378V90.344H22.46V91.402H43.436V97.152ZM29.82 104.788V103.776H15.192V104.788H29.82ZM15.192 107.824V108.882H29.82V107.824H15.192ZM15.192 113.068H29.82V112.01H15.192V113.068ZM83.594 107.778H89.344V118.772H67.264V108.1H65.654L62.066 118.772H47.116V114.402L52.222 106.72H47.99V76.268H88.056V106.72H80.696V109.572H82.214L83.594 107.778ZM74.762 85.054H60.962V86.434H74.762V85.054ZM74.762 92.46V91.08H60.962V92.46H74.762ZM60.962 97.244V98.624H74.762V97.244H60.962ZM92.886 95.588V85.652L97.67 77.326H112.804V79.902L110.504 84.318V84.916H117.634V84.318L115.38 79.902V77.326H130.468L135.252 85.652V95.588H92.886ZM93.576 97.29H134.424V118.542H93.576V97.29ZM107.422 106.49V109.02H120.256V106.49H107.422ZM170.718 77.05V81.972H160.46V77.05H162.254V75.762H168.924V77.05H170.718ZM159.724 87.768V92.414H150.202V87.078L152.134 85.146V85.1H150.248V79.166L153.1 76.406H159.632V79.58L157.516 81.65V81.742H159.724V85.882L157.884 87.676V87.768H159.724ZM181.068 87.768V92.414H171.362V87.078L173.34 85.146V85.1H171.454V79.166L174.306 76.406H180.976V79.58L178.906 81.65V81.742H181.068V85.882L179.228 87.676V87.768H181.068ZM138.84 88.32V76.544H149.374V88.32H138.84ZM170.442 82.754V86.204H160.644V82.754H170.442ZM160.644 90.436V86.986H170.442V90.436H160.644ZM138.84 101.568V89.516H149.374V101.568H138.84ZM160.506 98.762V91.31H170.58V98.762H160.506ZM153.514 93.15V98.762H150.248V93.15H153.514ZM156.688 98.762H154.158V93.15H156.688V98.762ZM159.678 98.762H157.378V93.15H159.678V98.762ZM174.536 93.15V98.762H171.316V93.15H174.536ZM177.94 98.762H175.226V93.15H177.94V98.762ZM181.022 98.762H178.63V93.15H181.022V98.762ZM164.6 94.668V95.634H166.67V94.668H164.6ZM159.31 108.606H181.344V115.184L178.676 118.542H150.34V113.16H169.752V112.194H150.432V104.558H169.752V103.638H150.34V99.636H181.16V107.732H159.31V108.606ZM138.748 107.364L141.232 102.764H149.374V118.726H138.748V107.364Z" fill="#4527A0"/>
<path d="M130.031 2.972H134.171V18.29H130.031V21.464H116.024V18.29H111.401V21.464H97.739V18.29H94.289V2.972H97.739V0.418997H111.401V2.972H116.024V0.418997H130.031V2.972ZM70.691 64.106V1.592H92.564V64.106H70.691ZM80.696 17.945V49.133H82.628V17.945H80.696ZM94.289 64.589V23.12H134.171V64.589H94.289ZM109.469 34.919H106.985V40.025H109.469V34.919ZM120.578 40.025V34.919H118.094V40.025H120.578ZM106.985 47.753V52.859H109.469V47.753H106.985ZM118.094 52.859H120.578V47.753H118.094V52.859Z" fill="#26A69A"/>
</svg>
