<svg xmlns="http://www.w3.org/2000/svg" width="161" height="49" viewBox="0 0 161 49" fill="none">
  <path d="M0.895752 1.69H18.1553V48.46H0.895752V1.69ZM8.78704 37.26H10.3168V13.93H8.78704V37.26ZM50.997 2.72V14.18H47.7265V16.55H36.6703V14.18H33.0201V16.55H22.2381V14.18H19.5162V2.72H22.2381V0.809998H33.0201V2.72H36.6703V0.809998H47.7265V2.72H50.997ZM19.5162 17.8H50.997V48.82H19.5162V17.8ZM29.5386 26.62V30.44H31.5009V26.62H29.5386ZM29.5386 40.05H31.5009V36.23H29.5386V40.05ZM40.2678 26.62H38.3055V30.44H40.2678V26.62ZM40.2678 40.05V36.23H38.3055V40.05H40.2678Z" fill="#4527A0"/>
  <path d="M105.782 35.86V48.61H55.354V35.86H60.5234L58.0231 19.91V18H74.8501L77.1922 35.86H83.4588L85.8009 18H102.628V19.91L100.117 35.86H105.782ZM105.403 16.3H55.7866V3.09H70.8728V0.410004H90.2635V3.09H105.403V16.3Z" fill="#4527A0"/>
  <path d="M126.798 37.15H130.775V46.08H126.798V48.87H114.106V46.08H110.076V37.15H114.106V35.34H110.076V13.45H114.106V11.69H110.076V3.07001H114.106V1.32001H126.798V3.07001H130.722V11.69H126.798V13.45H130.722V35.34H126.798V37.15ZM122.23 20.48H118.421V21.93H122.23V20.48ZM118.411 28.17H122.219V26.72H118.411V28.17ZM132.083 15.47H145.049V48.77H131.925V43.97L134.816 42.99V41.24L133.349 41.81H132.041V34.48L134.816 33.55V32.78L132.041 32.16V25.66H133.349L134.816 26.02V24.16H132.094V15.49L132.083 15.47ZM160.019 5.77001V14.18H150.324L146.948 12.12H145.038L141.937 14.18H131.967V5.77001L140.787 0.76001H151.189L160.009 5.77001H160.019ZM146.188 15.47H159.966V48.77H146.674V43.97L149.068 42.99V41.6L147.539 42.17H146.231V34.48L149.058 33.55V32.78L146.167 32.16V25.66H147.528L149.058 26.02V24.16H146.167V15.49L146.188 15.47Z" fill="#4527A0"/>
</svg>