<svg xmlns="http://www.w3.org/2000/svg" width="31" height="31" viewBox="0 0 31 31" fill="none">
  <path d="M15.5 1.80103C7.7446 1.80103 1.4375 8.10813 1.4375 15.8635C1.4375 23.6189 7.7446 29.926 15.5 29.926C23.2554 29.926 29.5625 23.6189 29.5625 15.8635C29.5625 8.10813 23.2554 1.80103 15.5 1.80103ZM15.5 3.67603C22.2421 3.67603 27.6948 9.12145 27.6948 15.8635C27.6948 22.6056 22.2421 28.0583 15.5 28.0583C8.75793 28.0583 3.3125 22.6056 3.3125 15.8635C3.3125 9.12145 8.75793 3.67603 15.5 3.67603ZM15.4872 8.36902C15.2395 8.37338 15.0036 8.47558 14.831 8.6533C14.6585 8.83101 14.5632 9.0698 14.5662 9.3175V10.1067C13.0524 10.3907 11.7573 11.3654 11.7573 13.0547C11.7573 14.2266 12.2856 15.1744 12.9951 15.7262C13.7046 16.278 14.5057 16.5227 15.2089 16.7571C15.912 16.9915 16.5189 17.2155 16.8641 17.484C17.2093 17.7525 17.375 17.9784 17.375 18.6815C17.375 20.244 13.6323 20.244 13.6323 18.6815C13.6351 18.5567 13.6129 18.4325 13.567 18.3163C13.5212 18.2002 13.4525 18.0943 13.3652 18.005C13.2779 17.9158 13.1736 17.8448 13.0585 17.7964C12.9434 17.7479 12.8197 17.723 12.6948 17.723C12.5699 17.723 12.4463 17.7479 12.3312 17.7964C12.216 17.8448 12.1118 17.9158 12.0244 18.005C11.9371 18.0943 11.8685 18.2002 11.8226 18.3163C11.7768 18.4325 11.7546 18.5567 11.7573 18.6815C11.7573 20.3695 13.0536 21.3461 14.5662 21.6313V22.4169C14.5634 22.5417 14.5856 22.6659 14.6315 22.7821C14.6773 22.8982 14.7459 23.0041 14.8333 23.0933C14.9206 23.1826 15.0249 23.2536 15.14 23.302C15.2551 23.3504 15.3788 23.3754 15.5037 23.3754C15.6286 23.3754 15.7522 23.3504 15.8673 23.302C15.9824 23.2536 16.0867 23.1826 16.174 23.0933C16.2614 23.0041 16.33 22.8982 16.3759 22.7821C16.4217 22.6659 16.4439 22.5417 16.4412 22.4169V21.6313C17.954 21.3462 19.2518 20.3697 19.2518 18.6815C19.2518 17.5096 18.7217 16.5618 18.0122 16.01C17.3027 15.4582 16.5016 15.2117 15.7985 14.9773C15.0953 14.7429 14.4884 14.5207 14.1432 14.2522C13.798 13.9837 13.6323 13.7578 13.6323 13.0547C13.6323 11.4922 17.375 11.4922 17.375 13.0547C17.375 13.3036 17.4739 13.5423 17.6499 13.7182C17.8258 13.8942 18.0645 13.9931 18.3134 13.9931C18.5623 13.9931 18.801 13.8942 18.977 13.7182C19.153 13.5423 19.2518 13.3036 19.2518 13.0547C19.2518 11.3679 17.9536 10.3942 16.4412 10.1085V9.3175C16.4426 9.19207 16.4189 9.06762 16.3714 8.95152C16.324 8.83541 16.2536 8.73002 16.1647 8.64158C16.0757 8.55313 15.9699 8.48344 15.8536 8.43662C15.7372 8.38981 15.6126 8.36682 15.4872 8.36902Z" fill="currentColor"/>
</svg>