<svg width="138" height="34" viewBox="0 0 138 34" fill="none" xmlns="http://www.w3.org/2000/svg">
<path d="M10.225 26.2435V1.70852H21.95V33.9085H7.67V31.4935H0.18V8.88352L3.715 3.91352H8.51V28.1685L10.225 26.2435ZM28.46 3.91352L31.995 8.88352V31.3535H23.665V3.91352H28.46ZM46.765 0.868524V2.33852H51.595V11.2635H50.825V17.6335L49.53 18.5435L51.525 20.2235V27.7485H50.65V33.5935H35.775V27.7485H34.69V20.2235L36.86 18.8235L35.705 17.8435V15.2885H41.725L42.88 16.1285L44.735 14.8335V14.5185H35.705V11.3335H34.725V2.33852H39.24V0.868524H46.765ZM65.945 29.2185L67.17 31.4585V33.6285H60.625L59.785 30.3385H59.365L58.42 33.6285H51.875V31.4585L53.38 29.2185H52.33V9.47853H55.69L56.04 8.46352H52.4V1.49852H67.065V8.46352H63.145L62.83 9.47853H66.96V29.2185H65.945ZM44.49 10.3185H46.275V8.32352H39.765V9.19852H44.49V10.3185ZM61.115 15.9185V14.9385H57.86V15.9185H61.115ZM61.115 20.2235V19.2785H57.86V20.2235H61.115ZM43.16 21.4485L41.305 22.7085H44.91L43.16 21.4485ZM57.86 23.4785V24.4585H61.115V23.4785H57.86ZM44.595 28.9385V27.4335H41.725V28.9385H44.595ZM80.4 1.39352V3.98353H81.59V12.3835H80.4V14.5185H81.17V23.4085L80.4 23.6885V33.6635H70.075V30.6535L71.51 28.9735V26.7335H69.83V17.8785L71.51 17.2835V12.3835H70.075V3.98353H71.51V1.39352H80.4ZM101.575 1.53352V11.8235H82.395V1.53352H101.575ZM93.385 7.69352V6.36352H90.62V7.69352H93.385ZM81.94 12.8385H102.135V33.7335H91.355V31.2135L93.42 29.2535V28.9035H90.13V33.6635H81.94V12.8385ZM93.42 19.5235H90.13V20.5385H93.42V19.5235ZM90.13 25.1585H93.42V24.1785H90.13V25.1585ZM117.22 1.07853V2.30352H121.42V8.07852H117.22V8.98853H121.385V14.0285H105.215V8.98853H109.24V8.07852H104.935V2.30352H109.24V1.07853H117.22ZM137.205 16.3035L135.49 19.5935H133.53L137.17 25.7885V33.6635H131.465L129.645 28.7635H129.33L127.475 33.6635H122.085V25.7885L125.795 18.4035V16.7235L124.045 19.9435H122.12V5.45353L124.64 1.11352H131.01V2.65352H137.205V16.3035ZM128.385 11.9285H130.73V10.6335H129.085L128.385 11.9285ZM105.18 14.8685H121.28V19.3835H105.18V14.8685ZM105.005 25.2985V20.2585H121.42V25.2985H116.66V33.7335H109.59V25.2985H105.005ZM104.62 27.9935L105.635 26.1035H108.82V33.4185H104.62V27.9935ZM117.395 26.1035H120.335L121.35 27.9935V33.4185H117.395V26.1035Z" fill="#222222"/>
</svg>
