<svg width="208" height="34" viewBox="0 0 208 34" fill="none" xmlns="http://www.w3.org/2000/svg">
<path d="M28.81 24.1085L32.31 29.3235V33.7335H21.6L16.665 24.1085H11.24V25.5435H15.65V30.4085L12.395 33.6285H0.215V1.42852H31.68V15.9885H26.465V17.3535H31.82V24.1085H28.81ZM21.25 8.60352H10.96V9.96853H21.215L21.25 8.60352ZM11.24 15.9885V17.3535H15.44V15.9885H11.24ZM66.925 1.53352V13.4335H35.075V1.53352H66.925ZM43.615 6.95852V8.53352H45.505V6.95852H43.615ZM51.7 6.95852H49.88V8.53352H51.7V6.95852ZM58.105 8.53352V6.95852H56.11V8.53352H58.105ZM65.49 23.7935L67.205 25.7885V32.7535H63.18L61.29 30.2685H60.905L59.085 32.7535H56.355V33.9435H45.75V32.7535H42.95L41.13 30.2685H40.745L38.855 32.7535H34.83V25.7885L36.545 23.7935V20.7485H44.875V24.0035L45.75 24.8435V19.8735H35.53V14.3785H66.645V18.0535L63.81 19.8735H56.355V24.7735L57.16 24.0035V20.7485H65.49V23.7935ZM100.945 26.4535L102.1 27.8535V33.5935H98.355L96.71 31.8435L94.925 33.6635H91.285V27.8535L92.475 26.5585L91.285 25.2285V20.6085H95.205L96.465 22.0785V19.8385H90.62V30.8635L87.96 33.6635H83.795V1.77852H101.925V10.8785L99.895 13.6785H92.16V8.74352H94.4V7.97352H91.355V14.4135H102.065V25.2285L100.945 26.4535ZM70.005 33.7685V1.84852H82.92V33.7685H76.34V28.4835L77.11 27.3985V24.5285H75.535V33.7685H70.005ZM76.865 9.65353H75.64V11.7885H76.865V9.65353ZM75.64 19.0685H76.865V17.2485H75.64V19.0685ZM131.36 18.8935L128.21 16.8635L126.075 18.2985H129.015V19.6985H136.995V33.5935H127.055V29.6035L128.56 28.3085V25.7535H127.125L125.27 33.5935H117.15V31.2135L119.67 25.7535H118.62L117.85 27.3285H115.505V18.5085H114.805V33.5935H105.46V29.7785L107.875 27.5385V26.2085L105.705 28.1335H104.48V20.2235L106.86 18.5085H104.62V12.4185H105.845L104.865 10.5635V8.88352H110.395L111.06 10.0735L111.9 8.35853V7.93852H104.795V1.60352H118.2V9.93352L116.905 12.4185H119.32V14.3435L121.63 13.0135L119.145 11.4035V8.88352H126.355L127.685 9.75852L129.33 8.60352V8.04353H119.145V3.45852L121.56 1.00852H128.35V2.09352H136.82V11.4035L134.72 12.9435L137.135 14.5185V18.8935H131.36ZM119.32 19.6985H121.175V18.8935H119.32V19.6985ZM166.78 2.54852H172.1V10.3535H151.765V2.54852H156.63V0.868524H166.78V2.54852ZM139.55 9.33853L143.75 1.46352H150.82V33.6285H141.475V21.3435H139.55V9.33853ZM171.75 11.2985V16.2335H151.905V11.2985H171.75ZM151.905 21.9035V17.1785H171.75V21.9035H151.905ZM151.87 33.5935V22.9185H171.925V33.5935H151.87ZM159.885 27.5735V29.0085H163.805V27.5735H159.885ZM190.44 7.83352H188.305L190.09 10.1085V11.7535H182.88L181.445 9.93352L180.395 11.7535H174.76V5.90852L177.525 1.21852H184.56V2.19852H190.44V7.83352ZM201.08 2.19852H207.17V7.83352H205.07L206.82 10.0735V11.7535H199.505L198.035 9.86352L196.915 11.7535H191.14V5.90852L193.905 1.21852H201.08V2.19852ZM187.01 12.4185V13.7135H189.285V20.5035H187.01V21.1335L189.215 23.1635V29.7435H187.01V33.6635H178.225V30.6535L176.37 32.5785H174.76V23.0585L177.665 20.5035H175.005V13.7135H178.225V12.4185H187.01ZM190.16 33.7335V12.5585H207.065V33.7335H190.16ZM199.995 18.0535H197.09V19.1035H199.995V18.0535ZM197.09 23.6535H199.995V22.6035H197.09V23.6535ZM197.09 28.3085H199.995V27.2235H197.09V28.3085Z" fill="#222222"/>
</svg>
