<svg width="150" height="114" viewBox="0 0 150 114" fill="none" xmlns="http://www.w3.org/2000/svg">
<rect x="1.5" y="1.5" width="147" height="111" rx="6.5" fill="white"/>
<rect x="1.5" y="1.5" width="147" height="111" rx="6.5" stroke="#4527A0" stroke-width="3"/>
<path d="M50.28 29.824H56.952V31.456H50.28V29.824ZM50.248 33.056H56.92V34.752H50.248V33.056ZM50.488 20.592H52.312V25.952H50.488V20.592ZM54.76 20.592H56.6V25.952H54.76V20.592ZM52.68 27.44H54.44V33.888H52.68V27.44ZM49.368 26.608H57.912V35.344H56.04V28.288H51.144V35.44H49.368V26.608ZM44.904 21.808H48.632V31.408H44.904V29.552H46.888V23.648H44.904V21.808ZM43.928 21.808H45.672V32.704H43.928V21.808ZM48.984 22.288H53.304V24.064H48.984V22.288ZM53.8 22.304H58.52V24.064H53.8V22.304ZM61.912 30.8H72.344V32.288H61.912V30.8ZM62.328 28.224H73.064V29.808H62.328V28.224ZM59.944 33.376H74.104V35.024H59.944V33.376ZM66.056 27.248H68.056V34.528H66.056V27.248ZM63.368 24.64V25.488H70.472V24.64H63.368ZM63.368 22.432V23.28H70.472V22.432H63.368ZM61.496 20.976H72.472V26.96H61.496V20.976ZM62.312 26.8L64.2 27.344C63.48 28.896 62.28 30.448 61.176 31.424C60.808 31.072 60.024 30.496 59.576 30.224C60.68 29.392 61.736 28.096 62.312 26.8ZM75.896 24.72H90.136V26.704H75.896V24.72ZM84.104 25.52C85.064 29.184 87.096 32.224 90.488 33.568C90.008 34 89.368 34.832 89.048 35.392C85.384 33.68 83.384 30.368 82.168 25.968L84.104 25.52ZM81.896 20.416H84.008C83.928 25.296 83.896 32.08 77.032 35.392C76.728 34.864 76.136 34.176 75.576 33.76C82.136 30.832 81.848 24.752 81.896 20.416ZM96.296 21.984H106.504V23.728H96.296V21.984ZM98.392 26.416V28H104.232V26.416H98.392ZM96.648 24.848H106.072V29.568H96.648V24.848ZM98.152 29.728C99.576 32.032 102.6 33.328 106.744 33.712C106.344 34.128 105.864 34.896 105.624 35.424C101.288 34.832 98.328 33.216 96.584 30.208L98.152 29.728ZM100.344 20.512H102.232V27.824C102.232 31.088 101.416 34.064 96.824 35.44C96.6 35.008 96.04 34.24 95.624 33.84C99.928 32.88 100.344 30.432 100.344 27.808V20.512ZM95.08 20.368L96.872 20.944C95.784 23.664 94.024 26.528 92.2 28.336C92.04 27.888 91.528 26.832 91.208 26.368C92.728 24.928 94.216 22.656 95.08 20.368ZM93.528 24.832L95.336 23.008L95.352 23.024V35.472H93.528V24.832Z" fill="#222222"/>
<path d="M24.92 51.26H30.74V67.8H25.62L22.18 62.12H21.76V67.78H15.84V51.26H21.14L24.48 56.9H24.92V51.26ZM45.602 51.18V56.96H42.182V67.8H35.562V56.96H32.142V51.18H45.602ZM59.1123 56.9L61.1323 58.54V64.92L58.7123 67.18H57.2523V68.8H51.1923V67.18H47.4323V62.48H54.5723V61.46H49.4723L47.4523 59.8V53.74L49.8723 51.48H51.1923V50H57.2523V51.48H60.6923V55.88H53.5923V56.9H59.1123ZM76.0838 57.26L77.6238 58.68V65.9L75.5438 67.98H65.3838L63.3038 65.9V53.4L65.9038 50.82H77.1638V55.88H69.2438V57.26H76.0838ZM71.9838 63.16V61.52H69.2438V63.16H71.9838ZM79.6342 62.62H84.7942V65.4L82.4742 69.36H79.6342V62.62ZM86.7813 65.72V53.18L89.1013 50.8H98.7413L101.081 53.18V65.72L98.7413 67.96H89.1013L86.7813 65.72ZM92.7613 56.4V62.48H95.1013V56.4H92.7613ZM103.09 65.72V53.18L105.41 50.8H115.05L117.39 53.18V65.72L115.05 67.96H105.41L103.09 65.72ZM109.07 56.4V62.48H111.41V56.4H109.07ZM119.398 65.72V53.18L121.718 50.8H131.358L133.698 53.18V65.72L131.358 67.96H121.718L119.398 65.72ZM125.378 56.4V62.48H127.718V56.4H125.378Z" fill="#4527A0"/>
<path d="M26.885 87.148H27.886V93.7C27.886 94.519 28.172 94.714 29.602 94.714C30.291 94.714 33.684 94.714 34.555 94.714C35.985 94.714 36.206 94.272 36.375 92.166C36.648 92.348 37.077 92.517 37.376 92.569C37.116 94.974 36.7 95.676 34.555 95.676C34.022 95.676 30.148 95.676 29.667 95.676C27.548 95.676 26.885 95.299 26.885 93.674V87.148ZM27.431 89.28H35.101V90.255H27.431V89.28ZM26.209 84.899H35.712V90.892H34.711V85.861H26.209V84.899ZM38.819 85.77H50.207V86.693H38.819V85.77ZM41.887 90.411H48.075V91.256H41.887V90.411ZM47.724 88.201H48.673V94.831C48.673 95.403 48.556 95.702 48.114 95.858C47.698 96.014 46.97 96.014 45.852 96.014C45.813 95.741 45.67 95.338 45.527 95.065C46.398 95.104 47.191 95.091 47.425 95.091C47.646 95.078 47.724 95.013 47.724 94.818V88.201ZM43.07 84.08L44.058 84.314C43.187 87.135 41.627 89.995 39.183 91.724C39.053 91.503 38.741 91.152 38.559 90.97C40.847 89.384 42.368 86.654 43.07 84.08ZM41.809 92.608H48.075V93.453H41.809V92.608ZM41.822 88.201H47.997V89.085H41.822V88.201ZM41.302 88.201H42.277V91.646C42.277 93.089 42.056 94.922 40.782 96.118C40.652 95.897 40.288 95.494 40.093 95.351C41.185 94.311 41.302 92.868 41.302 91.633V88.201ZM54.4792 95V94.311C57.4692 91.698 58.8342 89.787 58.8342 88.162C58.8342 87.07 58.2752 86.264 57.0922 86.264C56.3122 86.264 55.6362 86.745 55.1032 87.369L54.4142 86.706C55.1942 85.861 56.0262 85.302 57.2352 85.302C58.9382 85.302 60.0042 86.407 60.0042 88.11C60.0042 90.021 58.5092 91.958 56.2602 94.077C56.7672 94.025 57.3392 93.986 57.8202 93.986H60.4592V95H54.4792ZM64.7322 95.182C62.9122 95.182 61.7552 93.531 61.7552 90.203C61.7552 86.901 62.9122 85.302 64.7322 85.302C66.5262 85.302 67.6832 86.901 67.6832 90.203C67.6832 93.531 66.5262 95.182 64.7322 95.182ZM64.7322 94.22C65.8112 94.22 66.5392 93.011 66.5392 90.203C66.5392 87.434 65.8112 86.251 64.7322 86.251C63.6402 86.251 62.8992 87.434 62.8992 90.203C62.8992 93.011 63.6402 94.22 64.7322 94.22ZM71.9431 95.182C70.1231 95.182 68.9661 93.531 68.9661 90.203C68.9661 86.901 70.1231 85.302 71.9431 85.302C73.7371 85.302 74.8941 86.901 74.8941 90.203C74.8941 93.531 73.7371 95.182 71.9431 95.182ZM71.9431 94.22C73.0221 94.22 73.7501 93.011 73.7501 90.203C73.7501 87.434 73.0221 86.251 71.9431 86.251C70.8511 86.251 70.1101 87.434 70.1101 90.203C70.1101 93.011 70.8511 94.22 71.9431 94.22ZM79.154 95.182C77.334 95.182 76.177 93.531 76.177 90.203C76.177 86.901 77.334 85.302 79.154 85.302C80.948 85.302 82.105 86.901 82.105 90.203C82.105 93.531 80.948 95.182 79.154 95.182ZM79.154 94.22C80.233 94.22 80.961 93.011 80.961 90.203C80.961 87.434 80.233 86.251 79.154 86.251C78.062 86.251 77.321 87.434 77.321 90.203C77.321 93.011 78.062 94.22 79.154 94.22ZM91.5992 84.132H92.6782C92.6262 86.433 92.5222 93.037 86.9972 96.001C86.8282 95.741 86.5032 95.442 86.2042 95.234C91.6252 92.491 91.5472 86.134 91.5992 84.132ZM92.5612 85.731C92.6782 86.667 93.2112 92.894 98.2032 95.117C97.9172 95.338 97.6312 95.676 97.4882 95.949C92.3402 93.544 91.8072 86.966 91.6252 85.835L92.5612 85.731ZM100.504 84.21L101.232 84.314C101.011 85.003 100.725 85.653 100.244 86.251C100.075 86.108 99.8022 85.965 99.5942 85.887C100.049 85.38 100.348 84.756 100.504 84.21ZM100.686 84.925H104.638V85.588H100.296L100.686 84.925ZM101.999 84.08H102.831V86.745H101.999V84.08ZM99.4122 86.407H104.95V87.083H99.4122V86.407ZM100.998 86.771H101.817C101.622 88.071 101.115 88.955 99.7112 89.488C99.6072 89.306 99.3732 88.994 99.1912 88.851C100.426 88.474 100.855 87.759 100.998 86.771ZM106.172 84.21L106.9 84.327C106.666 85.003 106.367 85.666 105.847 86.251C105.691 86.121 105.418 85.965 105.223 85.887C105.691 85.38 106.003 84.756 106.172 84.21ZM106.38 84.951H110.436V85.627H105.99L106.38 84.951ZM107.602 84.08H108.421V86.667H107.602V84.08ZM105.275 86.407H110.904V87.083H105.275V86.407ZM106.705 86.771H107.511C107.355 88.006 106.861 88.76 105.457 89.215C105.366 89.02 105.132 88.708 104.963 88.578C106.185 88.253 106.588 87.707 106.705 86.771ZM108.291 86.81H109.084V88.11C109.084 88.331 109.123 88.357 109.344 88.357C109.461 88.357 109.955 88.357 110.098 88.357C110.319 88.357 110.371 88.292 110.397 87.616C110.54 87.746 110.852 87.85 111.073 87.902C110.995 88.825 110.787 89.046 110.215 89.046C110.059 89.046 109.396 89.046 109.253 89.046C108.473 89.046 108.291 88.864 108.291 88.11V86.81ZM101.96 91.321V92.179H108.499V91.321H101.96ZM101.96 92.777V93.635H108.499V92.777H101.96ZM101.96 89.878V90.71H108.499V89.878H101.96ZM101.011 89.241H109.474V94.285H101.011V89.241ZM106.211 94.818L106.991 94.324C108.447 94.688 110.033 95.182 110.995 95.546L109.942 96.053C109.11 95.702 107.68 95.221 106.211 94.818ZM103.247 94.324L104.131 94.714C103.078 95.26 101.388 95.793 100.088 96.092C99.9192 95.897 99.5812 95.533 99.3732 95.377C100.725 95.156 102.311 94.766 103.247 94.324ZM102.493 89.072L102.454 88.474L102.805 88.201L105.028 87.733C105.002 87.928 104.989 88.214 105.002 88.37C102.961 88.877 102.662 88.955 102.493 89.072ZM102.493 89.059C102.454 88.89 102.285 88.578 102.181 88.435C102.363 88.344 102.649 88.136 102.649 87.629V86.732L103.468 86.771V88.253C103.468 88.253 102.493 88.76 102.493 89.059ZM117.716 87.031H123.215V87.954H117.716V87.031ZM122.799 87.031H123.735C123.735 87.031 123.722 87.395 123.722 87.525C123.592 93.024 123.475 94.883 123.046 95.442C122.786 95.793 122.513 95.897 122.097 95.936C121.694 95.975 120.992 95.962 120.303 95.936C120.277 95.65 120.173 95.247 120.004 95C120.758 95.052 121.434 95.052 121.707 95.052C121.928 95.065 122.071 95.026 122.188 94.857C122.539 94.454 122.682 92.556 122.799 87.239V87.031ZM119.874 84.093H120.823C120.81 89.072 120.797 93.7 117.183 96.066C117.04 95.832 116.715 95.507 116.468 95.351C119.939 93.193 119.861 88.825 119.874 84.093ZM113.036 84.717H117.274V93.18H116.364V85.614H113.907V94.012H113.036V84.717ZM112.1 93.778C113.543 93.492 115.831 93.011 117.989 92.53L118.08 93.414C116.013 93.908 113.829 94.415 112.269 94.766L112.1 93.778ZM113.491 87.512H116.793V88.396H113.491V87.512ZM113.491 90.294H116.793V91.165H113.491V90.294Z" fill="#999999"/>
</svg>
