<svg width="139" height="33" viewBox="0 0 139 33" fill="none" xmlns="http://www.w3.org/2000/svg">
<path d="M31.525 21.8135L33.205 24.2985V32.6635H27.955L25.855 30.0035L24.175 32.6635H18.855V24.2985L20.465 21.9885L18.855 19.9235V11.6635H23.93L25.68 14.0435V10.7885H18.855V2.98353L21.165 0.148524H27.885V1.51352H33.065V19.3985L31.525 21.8135ZM0.865 9.10852V0.568525H17.98V9.10852H15.39V11.3835H17.665V21.4635H15.39V23.6685H17.98V32.5935H1.04V10.1585H6.08V23.6685H7.06V9.10852H0.865ZM62.43 25.2435L68.24 27.5185V32.5935H60.33L56.375 29.5485V32.5935H46.54V30.0035L43.075 32.5935H35.83V27.3435L40.59 25.3485H36.46V15.9335H46.54V15.1635H36.075V10.2985H46.54V9.59852H43.88L42.445 7.91852L41.395 9.59852H35.76V4.59352L38.525 0.218523H45.56V1.12852H51.44V5.95852H49.305L51.09 8.05852V9.03852H52.14V4.59352L54.905 0.218523H62.08V1.12852H68.17V5.95852H66.07L67.82 8.02352V9.59852H60.505L59.035 7.84853L57.915 9.59852H56.375V10.2985H68.17V15.1635H56.375V15.9335H67.68V23.4235L65.895 25.2435H62.43ZM56.375 20.4135V22.8635L57.355 23.2485V21.2185H60.295V20.4135H56.375ZM45.385 23.3185L46.54 22.8635V20.9385H45.385V23.3185ZM79.545 0.148524V1.54852H81.575V9.42352H70.935V1.54852H72.895V0.148524H79.545ZM102.085 28.1835L103.24 29.7585V32.6635H97.15L96.275 31.5435L95.225 32.5935H91.725V29.1635L93.265 27.6585L92.53 26.6785V23.8085H90.99V24.5435H91.865V28.0785L90.99 28.3235V32.8035H82.45V30.2485L85.005 29.1985V28.9185H82.24V24.5435H85.005V23.8085H82.24V19.4685H85.005V18.7685H82.415V15.6535H91.9V18.1385L90.99 18.4885V19.4685H92.53V14.9885H82.275V11.0685H88.05V10.2635H82.45V7.11352H88.05V6.34352H82.345V1.96852H84.585L84.025 0.568525V0.183524H91.27L91.97 1.96852H92.74L93.335 0.183524H100.895V0.568525L100.37 1.96852H102.855V6.34352H96.45V7.11352H102.645V10.2635H96.45V11.0685H102.855V14.9885H98.97V19.0135H103.135V23.2835H98.97V23.9135L99.46 24.5785L100.195 23.9835H103.03V27.3435L102.085 28.1835ZM71.075 15.3035V10.2285H81.54V15.3035H71.075ZM102.855 18.4185H99.53V15.6535H102.855V18.4185ZM71.075 20.9735V16.1085H81.54V20.9735H71.075ZM71.005 32.5935V21.8485H81.54V32.5935H71.005ZM75.66 26.6435V27.9385H77.06V26.6435H75.66ZM121.405 0.498524V13.6585H106.46V0.498524H121.405ZM124.94 7.14852L125.255 6.34352H122.21V0.498524H138.065V6.34352H132.605L132.325 7.14852H137.89V22.4085H136.91L138.135 23.8435L138.1 25.3135H130.925L130.33 23.7385H129.735L129.07 25.3135H122.28V23.8785L123.47 22.4085H122.245V7.14852H124.94ZM115.875 5.39852H112.515V6.23852H115.875V5.39852ZM112.515 9.66852H115.875V8.86352H112.515V9.66852ZM131.94 12.4685V11.6635H127.95V12.4685H131.94ZM119.305 25.9435H138.31V32.6985H112.795L110.94 31.0185L109.4 32.7685H105.935V20.5185H111.22V25.9435H112.06V19.7485H105.935V14.3935H121.475V19.7485H119.305V20.5535H121.51V25.1385H119.305V25.9435ZM127.95 14.8835V15.6885H131.94V14.8835H127.95ZM127.95 18.1735V18.9785H131.94V18.1735H127.95Z" fill="#FAFAFA"/>
</svg>
