<svg width="30" height="335" viewBox="0 0 30 335" fill="none" xmlns="http://www.w3.org/2000/svg">
<path d="M15 96.3867L17.8868 93.5L15 90.6133L12.1132 93.5L15 96.3867ZM14.4998 1.282e-06L14.5 93.5L15.5 93.5L15.4998 -1.28202e-06L14.4998 1.282e-06Z" fill="#333333"/>
<path d="M22.78 127L17.56 127L14.7 124.78L11.84 127L6.2 127L6.2 120.2L11.36 120.2L11.36 118.72L6.2 118.72L6.2 112.34L22.78 112.34L22.78 118.72L17.58 118.72L17.58 120.2L22.78 120.2L22.78 127ZM11.38 134.73L11.38 141.51L6.18 141.51L6.18 128.51L22.78 128.51L22.78 141.43L17.58 141.43L17.58 134.73L16.42 134.73L16.42 141.27L12.62 141.27L12.62 134.73L11.38 134.73ZM11.38 149.202L11.38 155.982L6.18 155.982L6.18 142.982L22.78 142.982L22.78 155.902L17.58 155.902L17.58 149.202L16.42 149.202L16.42 155.742L12.62 155.742L12.62 149.202L11.38 149.202ZM22.86 169.875L20.4 172.235L11.88 172.235L9.44 169.875L9.44 163.735L6.14 163.735L6.14 157.555L22.86 157.555L22.86 169.875ZM14.56 165.835L17.78 165.835L17.78 163.735L14.56 163.735L14.56 165.835ZM22.92 180.817L22.92 187.777L6.14 187.777L6.14 180.817L22.92 180.817ZM22.82 202.629L17.04 202.629L17.04 199.209L6.2 199.209L6.2 192.589L17.04 192.589L17.04 189.169L22.82 189.169L22.82 202.629ZM22.86 223.332L20.4 225.692L11.88 225.692L9.44 223.332L9.44 217.192L6.14 217.192L6.14 211.012L22.86 211.012L22.86 223.332ZM14.56 219.292L17.78 219.292L17.78 217.192L14.56 217.192L14.56 219.292ZM22.9 229.681L22.9 240.021L20.22 242.481L8.75999 242.481L6.11999 240.021L6.11999 229.681L8.76 227.221L20.24 227.221L22.9 229.681ZM11.22 233.521L11.22 236.181L17.68 236.181L17.68 233.521L11.22 233.521ZM6.15999 255.318L6.15999 244.038L11.16 244.038L11.16 251.178L12.24 251.178L12.24 246.078L14 244.058L20.46 244.058L22.86 246.478L22.86 257.298L18.18 257.298L18.18 250.198L17.1 250.198L17.1 255.718L15.34 257.738L8.55999 257.738L6.15999 255.318ZM6.15999 270.572L6.15999 259.292L11.16 259.292L11.16 266.432L12.24 266.432L12.24 261.332L14 259.312L20.46 259.312L22.86 261.732L22.86 272.552L18.18 272.552L18.18 265.452L17.1 265.452L17.1 270.972L15.34 272.992L8.55999 272.992L6.15999 270.572ZM22.92 274.606L22.92 281.566L6.13999 281.566L6.13999 274.606L22.92 274.606ZM14.46 296.558L13.52 298.018L8.35999 298.018L6.15999 295.878L6.15999 283.298L22.86 283.298L22.86 295.818L20.52 297.778L15.4 297.778L14.46 296.558ZM18.14 291.778L18.14 288.958L16.28 288.958L16.28 291.778L18.14 291.778ZM10.58 288.958L10.58 291.778L12.32 291.778L12.32 288.958L10.58 288.958ZM22.92 299.606L22.92 306.046L12.3 306.046L12.3 312.326L6.15999 312.326L6.15999 299.606L22.92 299.606ZM11.38 319.847L11.38 326.627L6.17999 326.627L6.17999 313.627L22.78 313.627L22.78 326.547L17.58 326.547L17.58 319.847L16.42 319.847L16.42 326.387L12.62 326.387L12.62 319.847L11.38 319.847Z" fill="#222222"/>
</svg>
