<svg width="234" height="125" viewBox="0 0 234 125" fill="none" xmlns="http://www.w3.org/2000/svg">
<mask id="path-1-inside-1_125_1715" fill="white">
<path d="M0.52 52.4V9.62L5.68 2.36H25.78L29.14 5.96H30.52L33.88 2.36H54.52L59.68 9.62V52.4H41.62V19.46H37.72V51.8H22.36V19.46H18.46V52.4H0.52ZM83.5788 12.14H64.4988V0.439998H83.5788V12.14ZM83.5788 52.7H64.4988V15.14H83.5788V52.7ZM96.152 12.62H128.552V52.7H117.032L113.312 47.84L108.632 52.7H95.672L88.052 44.78V20.54L96.152 12.62ZM105.392 37.16H111.152V25.76H105.392V37.16ZM140.792 53L133.052 45.08V20.42L140.792 12.56H165.272L173.012 20.42V45.08L165.272 53H140.792ZM149.852 38.6H156.392V26.96H149.852V38.6ZM0.52 74.24H19.84V106.1H38.68V124.52H0.52V74.24ZM61.7233 84.14H42.6433V72.44H61.7233V84.14ZM61.7233 124.7H42.6433V87.14H61.7233V124.7ZM69.0766 96.5H92.4766V110.3H69.0766V96.5ZM125.091 74.66H143.931V124.4H125.091V107.9H118.911V124.4H100.071V74.66H118.911V90.92H125.091V74.66ZM156.797 84.62H189.197V124.7H177.677L173.957 119.84L169.277 124.7H156.317L148.697 116.78V92.54L156.797 84.62ZM166.037 109.16H171.797V97.76H166.037V109.16ZM193.697 124.7V84.62H225.197L233.237 92.54V124.7H215.297V100.94H211.457V124.7H193.697Z"/>
</mask>
<path d="M0.52 52.4H-0.48V53.4H0.52V52.4ZM0.52 9.62L-0.295097 9.04067L-0.48 9.30083V9.62H0.52ZM5.68 2.36V1.36H5.1639L4.8649 1.78067L5.68 2.36ZM25.78 2.36L26.5111 1.67768L26.2146 1.36H25.78V2.36ZM29.14 5.96L28.4089 6.64232L28.7055 6.96H29.14V5.96ZM30.52 5.96V6.96H30.9546L31.2511 6.64232L30.52 5.96ZM33.88 2.36V1.36H33.4454L33.1489 1.67768L33.88 2.36ZM54.52 2.36L55.3351 1.78067L55.0361 1.36H54.52V2.36ZM59.68 9.62H60.68V9.30083L60.4951 9.04067L59.68 9.62ZM59.68 52.4V53.4H60.68V52.4H59.68ZM41.62 52.4H40.62V53.4H41.62V52.4ZM41.62 19.46H42.62V18.46H41.62V19.46ZM37.72 19.46V18.46H36.72V19.46H37.72ZM37.72 51.8V52.8H38.72V51.8H37.72ZM22.36 51.8H21.36V52.8H22.36V51.8ZM22.36 19.46H23.36V18.46H22.36V19.46ZM18.46 19.46V18.46H17.46V19.46H18.46ZM18.46 52.4V53.4H19.46V52.4H18.46ZM1.52 52.4V9.62H-0.48V52.4H1.52ZM1.3351 10.1993L6.4951 2.93932L4.8649 1.78067L-0.295097 9.04067L1.3351 10.1993ZM5.68 3.36H25.78V1.36H5.68V3.36ZM25.0489 3.04232L28.4089 6.64232L29.8711 5.27768L26.5111 1.67768L25.0489 3.04232ZM29.14 6.96H30.52V4.96H29.14V6.96ZM31.2511 6.64232L34.6111 3.04232L33.1489 1.67768L29.7889 5.27768L31.2511 6.64232ZM33.88 3.36H54.52V1.36H33.88V3.36ZM53.7049 2.93932L58.8649 10.1993L60.4951 9.04067L55.3351 1.78067L53.7049 2.93932ZM58.68 9.62V52.4H60.68V9.62H58.68ZM59.68 51.4H41.62V53.4H59.68V51.4ZM42.62 52.4V19.46H40.62V52.4H42.62ZM41.62 18.46H37.72V20.46H41.62V18.46ZM36.72 19.46V51.8H38.72V19.46H36.72ZM37.72 50.8H22.36V52.8H37.72V50.8ZM23.36 51.8V19.46H21.36V51.8H23.36ZM22.36 18.46H18.46V20.46H22.36V18.46ZM17.46 19.46V52.4H19.46V19.46H17.46ZM18.46 51.4H0.52V53.4H18.46V51.4ZM83.5788 12.14V13.14H84.5788V12.14H83.5788ZM64.4987 12.14H63.4987V13.14H64.4987V12.14ZM64.4987 0.439998V-0.560002H63.4987V0.439998H64.4987ZM83.5788 0.439998H84.5788V-0.560002H83.5788V0.439998ZM83.5788 52.7V53.7H84.5788V52.7H83.5788ZM64.4987 52.7H63.4987V53.7H64.4987V52.7ZM64.4987 15.14V14.14H63.4987V15.14H64.4987ZM83.5788 15.14H84.5788V14.14H83.5788V15.14ZM83.5788 11.14H64.4987V13.14H83.5788V11.14ZM65.4987 12.14V0.439998H63.4987V12.14H65.4987ZM64.4987 1.44H83.5788V-0.560002H64.4987V1.44ZM82.5788 0.439998V12.14H84.5788V0.439998H82.5788ZM83.5788 51.7H64.4987V53.7H83.5788V51.7ZM65.4987 52.7V15.14H63.4987V52.7H65.4987ZM64.4987 16.14H83.5788V14.14H64.4987V16.14ZM82.5788 15.14V52.7H84.5788V15.14H82.5788ZM96.152 12.62V11.62H95.7444L95.4529 11.905L96.152 12.62ZM128.552 12.62H129.552V11.62H128.552V12.62ZM128.552 52.7V53.7H129.552V52.7H128.552ZM117.032 52.7L116.238 53.3078L116.538 53.7H117.032V52.7ZM113.312 47.84L114.106 47.2322L113.399 46.3082L112.592 47.1464L113.312 47.84ZM108.632 52.7V53.7H109.057L109.352 53.3936L108.632 52.7ZM95.672 52.7L94.9514 53.3933L95.2465 53.7H95.672V52.7ZM88.052 44.78H87.052V45.1829L87.3314 45.4733L88.052 44.78ZM88.052 20.54L87.3529 19.825L87.052 20.1192V20.54H88.052ZM105.392 37.16H104.392V38.16H105.392V37.16ZM111.152 37.16V38.16H112.152V37.16H111.152ZM111.152 25.76H112.152V24.76H111.152V25.76ZM105.392 25.76V24.76H104.392V25.76H105.392ZM96.152 13.62H128.552V11.62H96.152V13.62ZM127.552 12.62V52.7H129.552V12.62H127.552ZM128.552 51.7H117.032V53.7H128.552V51.7ZM117.826 52.0922L114.106 47.2322L112.518 48.4478L116.238 53.3078L117.826 52.0922ZM112.592 47.1464L107.912 52.0064L109.352 53.3936L114.032 48.5336L112.592 47.1464ZM108.632 51.7H95.672V53.7H108.632V51.7ZM96.3927 52.0067L88.7727 44.0867L87.3314 45.4733L94.9514 53.3933L96.3927 52.0067ZM89.052 44.78V20.54H87.052V44.78H89.052ZM88.7512 21.255L96.8512 13.335L95.4529 11.905L87.3529 19.825L88.7512 21.255ZM105.392 38.16H111.152V36.16H105.392V38.16ZM112.152 37.16V25.76H110.152V37.16H112.152ZM111.152 24.76H105.392V26.76H111.152V24.76ZM104.392 25.76V37.16H106.392V25.76H104.392ZM140.792 53L140.077 53.6989L140.371 54H140.792V53ZM133.052 45.08H132.052V45.4875L132.337 45.7789L133.052 45.08ZM133.052 20.42L132.34 19.7184L132.052 20.0103V20.42H133.052ZM140.792 12.56V11.56H140.373L140.08 11.8584L140.792 12.56ZM165.272 12.56L165.985 11.8584L165.691 11.56H165.272V12.56ZM173.012 20.42H174.012V20.0103L173.725 19.7184L173.012 20.42ZM173.012 45.08L173.727 45.7789L174.012 45.4875V45.08H173.012ZM165.272 53V54H165.693L165.987 53.6989L165.272 53ZM149.852 38.6H148.852V39.6H149.852V38.6ZM156.392 38.6V39.6H157.392V38.6H156.392ZM156.392 26.96H157.392V25.96H156.392V26.96ZM149.852 26.96V25.96H148.852V26.96H149.852ZM141.507 52.3011L133.767 44.3811L132.337 45.7789L140.077 53.6989L141.507 52.3011ZM134.052 45.08V20.42H132.052V45.08H134.052ZM133.765 21.1216L141.505 13.2616L140.08 11.8584L132.34 19.7184L133.765 21.1216ZM140.792 13.56H165.272V11.56H140.792V13.56ZM164.56 13.2616L172.299 21.1216L173.725 19.7184L165.985 11.8584L164.56 13.2616ZM172.012 20.42V45.08H174.012V20.42H172.012ZM172.297 44.3811L164.557 52.3011L165.987 53.6989L173.727 45.7789L172.297 44.3811ZM165.272 52H140.792V54H165.272V52ZM149.852 39.6H156.392V37.6H149.852V39.6ZM157.392 38.6V26.96H155.392V38.6H157.392ZM156.392 25.96H149.852V27.96H156.392V25.96ZM148.852 26.96V38.6H150.852V26.96H148.852ZM0.52 74.24V73.24H-0.48V74.24H0.52ZM19.84 74.24H20.84V73.24H19.84V74.24ZM19.84 106.1H18.84V107.1H19.84V106.1ZM38.68 106.1H39.68V105.1H38.68V106.1ZM38.68 124.52V125.52H39.68V124.52H38.68ZM0.52 124.52H-0.48V125.52H0.52V124.52ZM0.52 75.24H19.84V73.24H0.52V75.24ZM18.84 74.24V106.1H20.84V74.24H18.84ZM19.84 107.1H38.68V105.1H19.84V107.1ZM37.68 106.1V124.52H39.68V106.1H37.68ZM38.68 123.52H0.52V125.52H38.68V123.52ZM1.52 124.52V74.24H-0.48V124.52H1.52ZM61.7233 84.14V85.14H62.7233V84.14H61.7233ZM42.6433 84.14H41.6433V85.14H42.6433V84.14ZM42.6433 72.44V71.44H41.6433V72.44H42.6433ZM61.7233 72.44H62.7233V71.44H61.7233V72.44ZM61.7233 124.7V125.7H62.7233V124.7H61.7233ZM42.6433 124.7H41.6433V125.7H42.6433V124.7ZM42.6433 87.14V86.14H41.6433V87.14H42.6433ZM61.7233 87.14H62.7233V86.14H61.7233V87.14ZM61.7233 83.14H42.6433V85.14H61.7233V83.14ZM43.6433 84.14V72.44H41.6433V84.14H43.6433ZM42.6433 73.44H61.7233V71.44H42.6433V73.44ZM60.7233 72.44V84.14H62.7233V72.44H60.7233ZM61.7233 123.7H42.6433V125.7H61.7233V123.7ZM43.6433 124.7V87.14H41.6433V124.7H43.6433ZM42.6433 88.14H61.7233V86.14H42.6433V88.14ZM60.7233 87.14V124.7H62.7233V87.14H60.7233ZM69.0766 96.5V95.5H68.0766V96.5H69.0766ZM92.4766 96.5H93.4766V95.5H92.4766V96.5ZM92.4766 110.3V111.3H93.4766V110.3H92.4766ZM69.0766 110.3H68.0766V111.3H69.0766V110.3ZM69.0766 97.5H92.4766V95.5H69.0766V97.5ZM91.4766 96.5V110.3H93.4766V96.5H91.4766ZM92.4766 109.3H69.0766V111.3H92.4766V109.3ZM70.0766 110.3V96.5H68.0766V110.3H70.0766ZM125.091 74.66V73.66H124.091V74.66H125.091ZM143.931 74.66H144.931V73.66H143.931V74.66ZM143.931 124.4V125.4H144.931V124.4H143.931ZM125.091 124.4H124.091V125.4H125.091V124.4ZM125.091 107.9H126.091V106.9H125.091V107.9ZM118.911 107.9V106.9H117.911V107.9H118.911ZM118.911 124.4V125.4H119.911V124.4H118.911ZM100.071 124.4H99.0708V125.4H100.071V124.4ZM100.071 74.66V73.66H99.0708V74.66H100.071ZM118.911 74.66H119.911V73.66H118.911V74.66ZM118.911 90.92H117.911V91.92H118.911V90.92ZM125.091 90.92V91.92H126.091V90.92H125.091ZM125.091 75.66H143.931V73.66H125.091V75.66ZM142.931 74.66V124.4H144.931V74.66H142.931ZM143.931 123.4H125.091V125.4H143.931V123.4ZM126.091 124.4V107.9H124.091V124.4H126.091ZM125.091 106.9H118.911V108.9H125.091V106.9ZM117.911 107.9V124.4H119.911V107.9H117.911ZM118.911 123.4H100.071V125.4H118.911V123.4ZM101.071 124.4V74.66H99.0708V124.4H101.071ZM100.071 75.66H118.911V73.66H100.071V75.66ZM117.911 74.66V90.92H119.911V74.66H117.911ZM118.911 91.92H125.091V89.92H118.911V91.92ZM126.091 90.92V74.66H124.091V90.92H126.091ZM156.797 84.62V83.62H156.389L156.097 83.905L156.797 84.62ZM189.197 84.62H190.197V83.62H189.197V84.62ZM189.197 124.7V125.7H190.197V124.7H189.197ZM177.677 124.7L176.882 125.308L177.183 125.7H177.677V124.7ZM173.957 119.84L174.751 119.232L174.043 118.308L173.236 119.146L173.957 119.84ZM169.277 124.7V125.7H169.702L169.997 125.394L169.277 124.7ZM156.317 124.7L155.596 125.393L155.891 125.7H156.317V124.7ZM148.697 116.78H147.697V117.183L147.976 117.473L148.697 116.78ZM148.697 92.54L147.997 91.825L147.697 92.1192V92.54H148.697ZM166.037 109.16H165.037V110.16H166.037V109.16ZM171.797 109.16V110.16H172.797V109.16H171.797ZM171.797 97.76H172.797V96.76H171.797V97.76ZM166.037 97.76V96.76H165.037V97.76H166.037ZM156.797 85.62H189.197V83.62H156.797V85.62ZM188.197 84.62V124.7H190.197V84.62H188.197ZM189.197 123.7H177.677V125.7H189.197V123.7ZM178.471 124.092L174.751 119.232L173.162 120.448L176.882 125.308L178.471 124.092ZM173.236 119.146L168.556 124.006L169.997 125.394L174.677 120.534L173.236 119.146ZM169.277 123.7H156.317V125.7H169.277V123.7ZM157.037 124.007L149.417 116.087L147.976 117.473L155.596 125.393L157.037 124.007ZM149.697 116.78V92.54H147.697V116.78H149.697ZM149.396 93.255L157.496 85.335L156.097 83.905L147.997 91.825L149.396 93.255ZM166.037 110.16H171.797V108.16H166.037V110.16ZM172.797 109.16V97.76H170.797V109.16H172.797ZM171.797 96.76H166.037V98.76H171.797V96.76ZM165.037 97.76V109.16H167.037V97.76H165.037ZM193.697 124.7H192.697V125.7H193.697V124.7ZM193.697 84.62V83.62H192.697V84.62H193.697ZM225.197 84.62L225.898 83.9076L225.606 83.62H225.197V84.62ZM233.237 92.54H234.237V92.1214L233.938 91.8276L233.237 92.54ZM233.237 124.7V125.7H234.237V124.7H233.237ZM215.297 124.7H214.297V125.7H215.297V124.7ZM215.297 100.94H216.297V99.94H215.297V100.94ZM211.457 100.94V99.94H210.457V100.94H211.457ZM211.457 124.7V125.7H212.457V124.7H211.457ZM194.697 124.7V84.62H192.697V124.7H194.697ZM193.697 85.62H225.197V83.62H193.697V85.62ZM224.495 85.3324L232.535 93.2524L233.938 91.8276L225.898 83.9076L224.495 85.3324ZM232.237 92.54V124.7H234.237V92.54H232.237ZM233.237 123.7H215.297V125.7H233.237V123.7ZM216.297 124.7V100.94H214.297V124.7H216.297ZM215.297 99.94H211.457V101.94H215.297V99.94ZM210.457 100.94V124.7H212.457V100.94H210.457ZM211.457 123.7H193.697V125.7H211.457V123.7Z" fill="#FAFAFA" mask="url(#path-1-inside-1_125_1715)"/>
</svg>
