<svg width="95" height="19" viewBox="0 0 95 19" fill="none" xmlns="http://www.w3.org/2000/svg">
<path d="M9.42 1.26H15.24V17.8H10.12L6.68 12.12H6.26V17.78H0.34V1.26H5.64L8.98 6.9H9.42V1.26ZM30.102 1.18V6.96H26.682V17.8H20.062V6.96H16.642V1.18H30.102ZM43.6123 6.9L45.6323 8.54V14.92L43.2123 17.18H41.7523V18.8H35.6923V17.18H31.9323V12.48H39.0723V11.46H33.9723L31.9523 9.8V3.74L34.3723 1.48H35.6923V-4.76837e-07H41.7523V1.48H45.1923V5.88H38.0923V6.9H43.6123ZM60.5838 7.26L62.1238 8.68V15.9L60.0438 17.98H49.8838L47.8038 15.9V3.4L50.4038 0.82H61.6638V5.88H53.7438V7.26H60.5838ZM56.4838 13.16V11.52H53.7438V13.16H56.4838ZM64.0742 15.72V3.18L66.3942 0.799999H76.0342L78.3742 3.18V15.72L76.0342 17.96H66.3942L64.0742 15.72ZM70.0542 6.4V12.48H72.3942V6.4H70.0542ZM80.3828 15.72V3.18L82.7028 0.799999H92.3428L94.6828 3.18V15.72L92.3428 17.96H82.7028L80.3828 15.72ZM86.3628 6.4V12.48H88.7028V6.4H86.3628Z" fill="#4527A0"/>
</svg>
