<svg width="119" height="20" viewBox="0 0 119 20" fill="none" xmlns="http://www.w3.org/2000/svg">
<path d="M9.92 1.26H15.74V17.8H10.62L7.18 12.12H6.76V17.78H0.84V1.26H6.14L9.48 6.9H9.92V1.26ZM30.602 1.18V6.96H27.182V17.8H20.562V6.96H17.142V1.18H30.602ZM44.1123 6.9L46.1323 8.54V14.92L43.7123 17.18H42.2523V18.8H36.1923V17.18H32.4323V12.48H39.5723V11.46H34.4723L32.4523 9.8V3.74L34.8723 1.48H36.1923V-4.76837e-07H42.2523V1.48H45.6923V5.88H38.5923V6.9H44.1123ZM61.0838 7.26L62.6238 8.68V15.9L60.5438 17.98H50.3838L48.3038 15.9V3.4L50.9038 0.82H62.1638V5.88H54.2438V7.26H61.0838ZM56.9838 13.16V11.52H54.2438V13.16H56.9838ZM64.6342 12.62H69.7942V15.4L67.4742 19.36H64.6342V12.62ZM71.7813 15.72V3.18L74.1013 0.799999H83.7413L86.0813 3.18V15.72L83.7413 17.96H74.1013L71.7813 15.72ZM77.7613 6.4V12.48H80.1013V6.4H77.7613ZM88.0898 15.72V3.18L90.4098 0.799999H100.05L102.39 3.18V15.72L100.05 17.96H90.4098L88.0898 15.72ZM94.0698 6.4V12.48H96.4098V6.4H94.0698ZM104.398 15.72V3.18L106.718 0.799999H116.358L118.698 3.18V15.72L116.358 17.96H106.718L104.398 15.72ZM110.378 6.4V12.48H112.718V6.4H110.378Z" fill="#4527A0"/>
</svg>
