
<svg width="135" height="20" viewBox="0 0 135 20" fill="none" xmlns="http://www.w3.org/2000/svg">
<path d="M9.42 1.26H15.24V17.8H10.12L6.68 12.12H6.26V17.78H0.34V1.26H5.64L8.98 6.9H9.42V1.26ZM30.102 1.18V6.96H26.682V17.8H20.062V6.96H16.642V1.18H30.102ZM43.6123 6.9L45.6323 8.54V14.92L43.2123 17.18H41.7523V18.8H35.6923V17.18H31.9323V12.48H39.0723V11.46H33.9723L31.9523 9.8V3.74L34.3723 1.48H35.6923V-4.76837e-07H41.7523V1.48H45.1923V5.88H38.0923V6.9H43.6123ZM60.5838 7.26L62.1238 8.68V15.9L60.0438 17.98H49.8838L47.8038 15.9V3.4L50.4038 0.82H61.6638V5.88H53.7438V7.26H60.5838ZM56.4838 13.16V11.52H53.7438V13.16H56.4838ZM64.0742 15.72V3.18L66.3942 0.799999H76.0342L78.3742 3.18V15.72L76.0342 17.96H66.3942L64.0742 15.72ZM70.0542 6.4V12.48H72.3942V6.4H70.0542ZM80.4428 12.62H85.6028V15.4L83.2828 19.36H80.4428V12.62ZM87.5898 15.72V3.18L89.9098 0.799999H99.5498L101.89 3.18V15.72L99.5498 17.96H89.9098L87.5898 15.72ZM93.5698 6.4V12.48H95.9098V6.4H93.5698ZM103.898 15.72V3.18L106.218 0.799999H115.858L118.198 3.18V15.72L115.858 17.96H106.218L103.898 15.72ZM109.878 6.4V12.48H112.218V6.4H109.878ZM120.207 15.72V3.18L122.527 0.799999H132.167L134.507 3.18V15.72L132.167 17.96H122.527L120.207 15.72ZM126.187 6.4V12.48H128.527V6.4H126.187Z" fill="#4527A0"/>
</svg>
