<svg width="241" height="19" viewBox="0 0 241 19" fill="none" xmlns="http://www.w3.org/2000/svg">
<path d="M12.2772 1.553L13.7022 3.339V9.058L9.88319 12.554V12.782H13.9302V17.855H0.972188V14.207L7.20419 7.956V7.272H1.14319V1.553H12.2772ZM15.7439 15.784V3.871L17.9479 1.61H27.1059L29.3289 3.871V15.784L27.1059 17.912H17.9479L15.7439 15.784ZM21.4249 6.93V12.706H23.6479V6.93H21.4249ZM42.4471 1.553L43.8721 3.339V9.058L40.0531 12.554V12.782H44.1001V17.855H31.1421V14.207L37.3741 7.956V7.272H31.3131V1.553H42.4471ZM45.8759 17.893V12.877H52.7729V11.661H46.2369V7.709H52.7729V6.512H45.9709V1.591H58.5869V8.165L57.5229 9.381L58.8719 10.616V16.107L57.0859 17.893H45.8759ZM79.7506 1.971V7.462H76.5016V17.76H70.2126V7.462H66.9636V1.971H79.7506ZM88.9944 2.009H94.9604V17.76H88.9944V12.535H87.0374V17.76H81.0714V2.009H87.0374V7.158H88.9944V2.009ZM102.379 12.839H108.82V17.779H96.4696V2.009H108.744V6.949H102.379V8.051H108.592V11.661H102.379V12.839ZM129.249 7.481H123.264V8.963H129.116V13.447H123.264V17.76H116.956V2.009H129.249V7.481ZM141.974 1.553L143.399 3.339V9.058L139.58 12.554V12.782H143.627V17.855H130.669V14.207L136.901 7.956V7.272H130.84V1.553H141.974ZM151.103 12.839H157.544V17.779H145.194V2.009H157.468V6.949H151.103V8.051H157.316V11.661H151.103V12.839ZM183.085 1.705V6.569H165.776V1.705H171.039V0.716999H177.803V1.705H183.085ZM181.242 13.77H183.218V18.463H165.624V13.77H167.429L166.555 7.899V7.196H172.426L173.243 13.77H175.428L176.245 7.196H182.116V7.899L181.242 13.77ZM201.173 14.359V15.575L200.299 16.031L201.8 16.525V18.52H195.093L193.478 17.608L191.977 18.577H185.08V16.487L186.714 15.879L185.65 15.328V14.359H184.548V11.091H185.745V10.597H184.586V8.849L186.391 7.747H184.643V4.859H190.457V4.346H184.966V1.059H201.857V3.244L200.09 4.346H196.366V4.859H202.18V7.747H200.394L202.237 8.849V10.597H197.62L196.366 9.153V10.597H191.54V11.091H202.389V14.359H201.173ZM190.457 10.578V9.153L189.222 10.578H190.457ZM191.654 14.15V14.492L193.573 15.385L195.207 14.454V14.15H191.654ZM211.661 4.593L211.566 5.467H211.984V8.412H203.51V5.467H204.327L204.232 4.593H203.833V1.458H205.695V0.716999H209.723V1.458H211.946V4.593H211.661ZM221.313 5.467V8.393H212.383V5.467H212.953L212.839 4.593H212.402V1.458H214.739V0.716999H218.767V1.458H221.161V4.593H220.648L220.553 5.467H221.313ZM207.443 4.593L207.538 5.467H208.222L208.317 4.593H207.443ZM216.259 4.593L216.373 5.467H217L217.095 4.593H216.259ZM203.947 13.713V8.849H211.946V13.713H211.015V14.188H211.832V17L210.882 18.558H208.127V13.713H207.842L207.329 18.558H203.757V16.753L204.574 13.713H203.947ZM220.325 14.188H221.408V18.558H216.487V13.713H216.202L215.746 18.558H212.269V16.753L212.991 13.713H212.459V8.849H220.99V13.713H219.717V14.815H220.04L220.325 14.188ZM207.291 10.977V11.585H208.621V10.977H207.291ZM215.936 10.977V11.585H217.399V10.977H215.936ZM239.477 14.511H240.237V18.539H226.918L225.987 17.703L225.094 18.539H222.719V5.752H226.994V14.511H227.735L228.191 13.599H227.412V11.357H228.856V10.901H227.602V8.583H228.856V8.146H227.412V1.002H233.397V5.543H231.022V5.98H233.397V7.291L232.732 7.937V8.583H234.575V8.146H233.796V1.002H239.857V5.543H237.425V5.98H239.857V8.146H238.47V8.583H239.781V10.901H238.47V11.357H239.876V13.599H238.964L239.477 14.511ZM226.994 1.325V5.22H222.738V1.325H226.994ZM230.927 3.358H230.11V3.909H230.927V3.358ZM237.368 3.358H236.513V3.909H237.368V3.358ZM232.732 10.901V11.357H234.575V10.901H232.732ZM233.055 13.789L232.865 14.511H234.328L234.195 13.789H233.055Z" fill="#222222"/>
</svg>
