<svg width="307" height="30" viewBox="0 0 307 30" fill="none" xmlns="http://www.w3.org/2000/svg">
<path d="M13.8243 2.25352H22.5543V27.0635H14.8743L9.71434 18.5435H9.08434V27.0335H0.204336V2.25352H8.15434L13.1643 10.7135H13.8243V2.25352ZM44.8474 2.13353V10.8035H39.7174V27.0635H29.7874V10.8035H24.6574V2.13353H44.8474ZM65.1129 10.7135L68.1429 13.1735V22.7435L64.5129 26.1335H62.3229V28.5635H53.2329V26.1335H47.5929V19.0835H58.3029V17.5535H50.6529L47.6229 15.0635V5.97352L51.2529 2.58352H53.2329V0.363525H62.3229V2.58352H67.4829V9.18352H56.8329V10.7135H65.1129ZM89.79 1.59352L92.91 4.71352V23.6135L89.01 27.2735H72V19.4735H84V17.7335H73.71L71.4 15.6035V4.71352L74.52 1.59352H89.79ZM79.89 11.4635H84V9.06353H79.89V11.4635ZM115.633 14.3135L117.703 16.4135V24.3035L114.553 27.3935H99.0129L95.8629 24.3035V16.4135L97.9329 14.3135L96.4929 12.9335V4.68352L99.7029 1.59352H113.863L117.073 4.68352V12.9335L115.633 14.3135ZM104.743 8.49352V11.1035H108.853V8.49352H104.743ZM109.093 20.3135V17.7035H104.503V20.3135H109.093ZM141.169 1.65352V10.1735L133.099 27.3335H122.899V26.1335L130.069 11.0735V10.4735H120.349V1.65352H141.169ZM144.001 19.2935H151.741V23.4635L148.261 29.4035H144.001V19.2935ZM173.832 11.2535L176.142 13.3835V24.2135L173.022 27.3335H157.782L154.662 24.2135V5.46353L158.562 1.59352H175.452V9.18352H163.572V11.2535H173.832ZM167.682 20.1035V17.6435H163.572V20.1035H167.682ZM179.007 27.2135V19.3535H190.797V17.5235H179.067V1.50352H199.767V9.15352H187.527V10.8635H197.367L200.307 13.5035V24.3935L197.367 27.2135H179.007ZM203.148 27.2135V19.3535H214.938V17.5235H203.208V1.50352H223.908V9.15352H211.668V10.8635H221.508L224.448 13.5035V24.3935L221.508 27.2135H203.148ZM227.439 19.2935H235.179V23.4635L231.699 29.4035H227.439V19.2935ZM257.869 14.3135L259.939 16.4135V24.3035L256.789 27.3935H241.249L238.099 24.3035V16.4135L240.169 14.3135L238.729 12.9335V4.68352L241.939 1.59352H256.099L259.309 4.68352V12.9335L257.869 14.3135ZM246.979 8.49352V11.1035H251.089V8.49352H246.979ZM251.329 20.3135V17.7035H246.739V20.3135H251.329ZM283.406 1.65352V10.1735L275.336 27.3335H265.136V26.1335L272.306 11.0735V10.4735H262.586V1.65352H283.406ZM286.087 27.2735V19.3535H296.977V17.4335H286.657V11.1935H296.977V9.30352H286.237V1.53352H306.157V11.9135L304.477 13.8335L306.607 15.7835V24.4535L303.787 27.2735H286.087Z" fill="#4527A0"/>
</svg>
