<svg width="139" height="34" viewBox="0 0 139 34" fill="none" xmlns="http://www.w3.org/2000/svg">
<path d="M32.225 0.634998V12.465H1.845V0.634998H32.225ZM22.425 4.765H11.295V5.64H22.425V4.765ZM11.295 9.035H22.425V8.125H11.295V9.035ZM0.795 13.305H33.38V18.94H17.105V33.045H9.37V31.995L6.465 32.625H0.55V27.375H1.74V19.71H0.795V13.305ZM10.21 19.955V18.94H8.6V19.955H10.21ZM32.89 27.06L31.665 28.18L33.345 29.51V32.87H26.765L25.365 31.785L24.07 32.87H17.805V29.79L19.065 28.845L17.805 27.795V25.24H24.245L25.155 25.94L26.135 25.17V24.61H17.805V19.57H32.89V27.06ZM8.6 22.615V23.63H10.21V22.615H8.6ZM8.6 26.36V27.375H10.21V26.36H8.6ZM47.835 0.179998V1.195H52.56V7.845H51.685L51.3 10.295H52.455V16.315H48.255V17.155H52.49V23.245H50.145L52.56 25.17V32.1H49.445L47.625 29.405V32.905H40.625V29.51L38.875 32.1H35.76V25.17L38.175 23.245H35.795V17.155H39.855V16.315H36.145V10.295H37.3L36.915 7.845H35.935V1.195H40.1V0.179998H47.835ZM68.695 9.735V17.54H67.785V32.73H61.345V17.54H60.365V29.44L57.46 32.87H53.47V0.809998H67.925V5.395L64.81 8.58H60.365V9.735H68.695ZM44.65 10.295L45 7.845H43.565L43.95 10.295H44.65ZM103.205 15.965H96.94V17.365H102.82V32.765H81.645V17.365H87.105V15.965H81.54V8.51H87.105V7.285H81.75V0.564999H102.75V4.625L100.265 7.285H96.94V8.51H103.205V15.965ZM70.9 9.735V0.774999H80.56V9.735H70.9ZM70.9 19.815V10.645H80.56V19.815H70.9ZM70.83 24.19L72.72 20.725H80.56V32.87H70.83V24.19ZM94.28 26.465V23.63H90.01V26.465H94.28ZM132.64 3.155H138.24V32.73H130.505V28.215L131.52 27.025V11.275H130.785L129.455 32.8H123.68V24.05L125.045 11.275H124.31V3.155H125.465V0.284999H132.64V3.155ZM106.04 4.905V0.564999H123.505V3.505L122.07 4.905H118.325V5.71H123.505V10.54H118.325V11.485H123.155V22.09H118.465V22.93H122.77V26.745H118.465V27.62H122.84V32.835H105.935V27.62H110.31V26.745H106.25V22.93H110.31V22.09H105.97V11.485H110.415V10.54H105.795V5.71H110.415V4.905H106.04ZM112.235 14.88H110.8V15.72H112.235V14.88ZM118.045 15.72V14.88H116.575V15.72H118.045ZM110.8 18.625H112.235V17.785H110.8V18.625ZM116.575 18.625H118.045V17.785H116.575V18.625Z" fill="#222222"/>
</svg>
